<?xml version="1.0" encoding="iso-8859-1"?>
<!-- Generator: Adobe Illustrator 19.0.0, SVG Export Plug-In . SVG Version: 6.00 Build 0)  -->
<svg version="1.1" id="Capa_1" xmlns="http://www.w3.org/2000/svg" xmlns:xlink="http://www.w3.org/1999/xlink" x="0px" y="0px"
	 viewBox="0 0 496 496" style="enable-background:new 0 0 496 496;" xml:space="preserve">
    <style type="text/css">
	.st0{fill:#FFFFFF;}
</style>
<g>
	<g>
		<g>
			<path class="st0" d="M190.216,265.696c5.256-1.76,10.344-3.848,15.184-6.248l32.464,21.64l43.224-43.216l-21.648-32.456
				c2.408-4.848,4.496-9.936,6.248-15.192L304,182.56v-61.12l-38.304-7.664c-2.288-6.856-5.152-13.416-8.52-19.544l-14.016,7.712
				c3.568,6.488,6.48,13.552,8.64,20.984l1.352,4.664L288,134.56v34.88l-34.848,6.968l-1.352,4.664
				c-2.168,7.432-5.072,14.496-8.64,20.984l-2.344,4.256l19.688,29.52l-24.664,24.664l-29.528-19.688l-4.256,2.344
				c-6.488,3.568-13.536,6.48-20.976,8.648l-4.656,1.352L169.448,288H134.56l-6.968-34.84l-4.656-1.352
				c-7.44-2.168-14.496-5.072-20.976-8.648l-4.256-2.344l-29.528,19.688L38.872,231.2L27.56,242.512l38.584,38.576l32.464-21.64
				c4.84,2.4,9.928,4.496,15.184,6.248L121.448,304h61.112L190.216,265.696z"/>
			<path class="st0" d="M46.832,209.768l14.016-7.712c-3.568-6.488-6.48-13.552-8.64-20.984l-1.352-4.664L16,169.44v-34.88l34.848-6.968
				l1.352-4.664c2.168-7.432,5.072-14.496,8.64-20.984l2.344-4.256l-19.688-29.52L68.16,43.504l29.528,19.688l4.256-2.344
				c6.488-3.568,13.536-6.48,20.976-8.648l4.656-1.352L134.552,16h34.888l6.968,34.84l4.656,1.352
				c7.44,2.168,14.496,5.072,20.976,8.648l4.256,2.344l29.528-19.688L265.128,72.8l11.312-11.312l-38.584-38.576l-32.464,21.64
				c-4.84-2.4-9.928-4.496-15.184-6.248L182.552,0H121.44l-7.664,38.304c-5.256,1.76-10.344,3.848-15.184,6.248l-32.456-21.64
				L22.904,66.128l21.648,32.456c-2.408,4.848-4.496,9.936-6.248,15.192L0,121.44v61.12l38.304,7.664
				C40.592,197.08,43.456,203.632,46.832,209.768z"/>
			<path class="st0" d="M240,152c0-48.52-39.48-88-88-88v16c39.704,0,72,32.304,72,72H240z"/>
			<path class="st0" d="M80,152H64c0,48.52,39.48,88,88,88v-16C112.296,224,80,191.696,80,152z"/>
			<path class="st0" d="M208,152c0-30.88-25.128-56-56-56s-56,25.12-56,56s25.128,56,56,56S208,182.88,208,152z M112,152
				c0-22.056,17.944-40,40-40c22.056,0,40,17.944,40,40c0,22.056-17.944,40-40,40C129.944,192,112,174.056,112,152z"/>
			<path class="st0" d="M309.504,360.488l-13.888,7.928c2.568,4.512,4.6,9.424,6.032,14.6l1.36,4.92l16.992,2.84v18.448l-16.992,2.832
				l-1.36,4.92c-1.432,5.176-3.464,10.088-6.032,14.6l-2.536,4.448l10.016,14.016l-13.048,13.04l-14.016-10.008l-4.448,2.536
				c-4.52,2.576-9.44,4.608-14.6,6.024l-4.92,1.36L249.224,480h-18.456l-2.832-17l-4.92-1.36c-5.168-1.416-10.08-3.448-14.6-6.024
				l-4.448-2.536l-14.016,10.008l-17.832-17.832l-11.312,11.312l27.416,27.424l16.872-12.048c2.824,1.36,5.728,2.56,8.72,3.592
				L217.224,496h45.544l3.416-20.472c2.992-1.032,5.896-2.232,8.72-3.592l16.872,12.048l32.2-32.216l-12.048-16.864
				c1.36-2.816,2.56-5.728,3.592-8.712l20.48-3.416v-45.552l-20.472-3.416C313.92,369.152,311.904,364.688,309.504,360.488z"/>
			<path class="st0" d="M170.496,439.512l13.888-7.928c-2.568-4.512-4.6-9.424-6.032-14.6l-1.36-4.92L160,409.224v-18.448l16.992-2.832
				l1.36-4.92c1.432-5.176,3.464-10.088,6.032-14.6l2.536-4.448l-10.016-14.016l13.048-13.04l14.016,10.008l4.448-2.536
				c4.52-2.576,9.44-4.608,14.6-6.024l4.92-1.36l2.84-17.008h18.456l2.832,17l4.92,1.36c5.168,1.416,10.08,3.448,14.6,6.024
				l4.448,2.536l14.016-10.008l17.832,17.832l11.312-11.312l-27.416-27.424l-16.872,12.048c-2.824-1.36-5.728-2.56-8.72-3.592
				L262.776,304h-45.544l-3.416,20.472c-2.992,1.032-5.896,2.232-8.72,3.592l-16.872-12.048l-32.2,32.216l12.048,16.864
				c-1.36,2.816-2.56,5.728-3.592,8.712L144,377.224v45.552l20.472,3.416C166.08,430.848,168.096,435.312,170.496,439.512z"/>
			<path class="st0" d="M240,360c-22.056,0-40,17.944-40,40c0,22.056,17.944,40,40,40c22.056,0,40-17.944,40-40C280,377.944,262.056,360,240,360
				z M240,424c-13.232,0-24-10.768-24-24s10.768-24,24-24s24,10.768,24,24S253.232,424,240,424z"/>
			<path class="st0" d="M496,254.776v-45.552l-20.472-3.416c-1.608-4.656-3.624-9.12-6.024-13.32l-13.888,7.928
				c2.568,4.512,4.6,9.424,6.032,14.6l1.36,4.92l16.992,2.84v18.448l-16.992,2.832l-1.36,4.92c-1.432,5.176-3.464,10.088-6.032,14.6
				l-2.536,4.448l10.016,14.016l-13.048,13.04l-14.016-10.008l-4.448,2.536c-4.52,2.576-9.44,4.608-14.6,6.024l-4.92,1.36
				L409.224,312h-18.456l-2.832-17l-4.92-1.36c-5.168-1.416-10.08-3.448-14.6-6.024l-4.448-2.536l-14.016,10.008l-17.832-17.832
				l-11.312,11.312l27.416,27.424l16.872-12.048c2.824,1.36,5.728,2.56,8.72,3.592L377.224,328h45.544l3.416-20.472
				c2.992-1.032,5.896-2.232,8.72-3.592l16.872,12.048l32.2-32.216l-12.048-16.864c1.36-2.816,2.56-5.728,3.592-8.712L496,254.776z"/>
			<path class="st0" d="M324.472,205.808L304,209.224v45.552l20.472,3.416c1.608,4.656,3.624,9.12,6.024,13.32l13.888-7.928
				c-2.568-4.512-4.6-9.424-6.032-14.6l-1.36-4.92L320,241.224v-18.448l16.992-2.832l1.36-4.92c1.432-5.176,3.464-10.088,6.032-14.6
				l2.536-4.448l-10.016-14.016l13.048-13.04l14.016,10.008l4.448-2.536c4.52-2.576,9.44-4.608,14.6-6.024l4.92-1.36l2.84-17.008
				h18.456l2.832,17l4.92,1.36c5.168,1.416,10.08,3.448,14.6,6.024l4.448,2.536l14.016-10.008l17.832,17.832l11.312-11.312
				l-27.416-27.424l-16.872,12.048c-2.824-1.36-5.728-2.56-8.72-3.592L422.776,136h-45.544l-3.416,20.472
				c-2.992,1.032-5.896,2.232-8.72,3.592l-16.872-12.048l-32.2,32.216l12.048,16.864
				C326.704,199.904,325.504,202.824,324.472,205.808z"/>
			<path class="st0" d="M400,192c-22.056,0-40,17.944-40,40c0,22.056,17.944,40,40,40c22.056,0,40-17.944,40-40C440,209.944,422.056,192,400,192
				z M400,256c-13.232,0-24-10.768-24-24s10.768-24,24-24s24,10.768,24,24S413.232,256,400,256z"/>
		</g>
	</g>
</g>
</svg>
