<?xml version="1.0" encoding="iso-8859-1"?>
<!-- Generator: Adobe Illustrator 19.0.0, SVG Export Plug-In . SVG Version: 6.00 Build 0)  -->
<svg version="1.1" id="Capa_1" xmlns="http://www.w3.org/2000/svg" xmlns:xlink="http://www.w3.org/1999/xlink" x="0px" y="0px"
	 viewBox="0 0 512 512" style="enable-background:new 0 0 512 512;" xml:space="preserve">
  <style type="text/css">
	.st0{fill:#FFFFFF;}
</style>
  <g>
	<g>
		<g>
			<path class="st0" d="M482.001,46H30C13.458,46,0,59.458,0,76v280c0,16.542,13.458,30,30,30h168.192l-16.895,67.574
				c-0.747,2.987-0.076,6.152,1.819,8.579c1.895,2.427,4.803,3.846,7.882,3.846H321c0.008,0.001,0.016,0,0.02,0
				c5.523,0,10-4.477,10-10c0-1.069-0.168-2.1-0.479-3.065L313.807,386H482c16.542,0,30-13.458,30-30V76
				C512.001,59.458,498.543,46,482.001,46z M203.807,445.999L218.808,386h74.385l15,59.999H203.807z M492.001,356
				c0,5.514-4.486,10-10,10H301.012c-0.004,0-0.008,0-0.012,0h-90c-0.004,0-0.008,0-0.012,0H30c-5.514,0-10-4.486-10-10v-10h472.001
				V356z M492.001,326H20V76c0-5.514,4.486-10,10-10h452.001c5.514,0,10,4.486,10,10V326z"/>
			<path class="st0" d="M124.082,106h0.475c5.522,0,10-4.477,10-10s-4.478-10-10-10h-0.475c-5.522,0-10,4.477-10,10S118.56,106,124.082,106z"/>
			<path class="st0" d="M94.998,86H53.56c-5.522,0-10,4.477-10,10s4.477,10,10,10h41.438c5.522,0,10-4.477,10-10S100.52,86,94.998,86z"/>
			<path class="st0" d="M398.59,196.216c-0.302-2.152-1.296-4.147-2.833-5.684l-14.76-14.759c-1.875-1.875-4.418-2.929-7.07-2.929H249.634
				c-3.471-6.84-7.994-13.066-13.498-18.572c-13.817-13.817-32.189-21.426-51.73-21.426c-19.54,0-37.911,7.609-51.729,21.426
				c-13.817,13.817-21.427,32.188-21.427,51.729s7.609,37.911,21.427,51.729c13.818,13.816,32.188,21.426,51.729,21.426
				s37.912-7.609,51.73-21.427c6.215-6.216,11.16-13.311,14.757-21.163l1.148,0.001l4.611,8.075
				c1.779,3.117,5.094,5.041,8.684,5.041h21.055c3.744,0,7.174-2.091,8.89-5.419l3.943-7.653l3.482,0.003l10.34,10.191
				c1.871,1.844,4.393,2.878,7.02,2.878h11.842c2.686,0,5.26-1.081,7.141-2.999l8.293-8.458l5.59,7.457
				c1.889,2.519,4.853,4.001,8.001,4.001h9.955c3.201,0,6.21-1.533,8.091-4.123l19.863-27.35c1.522-2.096,2.172-4.7,1.813-7.264
				L398.59,196.216z M365.859,229.585l-6.756-9.011c-1.889-2.519-4.852-4.002-8.001-4.002h-6.345c-2.687,0-5.26,1.081-7.141,3
				l-9.911,10.109h-3.542l-10.336-10.188c-1.869-1.843-4.388-2.876-7.012-2.878l-13.681-0.01c-0.003,0-0.005,0-0.008,0
				c-3.744,0-7.174,2.091-8.889,5.419l-3.946,7.657h-9.152l-4.607-8.067c-1.777-3.113-5.086-5.037-8.671-5.042l-13.712-0.017
				c-0.005,0-0.009,0-0.013,0c-1.854,0-3.677,0.518-5.255,1.492c-1.969,1.215-3.456,3.075-4.207,5.263
				c-2.634,7.671-6.9,14.493-12.683,20.274c-10.039,10.04-23.389,15.569-37.587,15.569c-14.198,0-27.547-5.529-37.586-15.568
				c-10.04-10.04-15.569-23.389-15.569-37.587c0.002-14.196,5.531-27.545,15.571-37.585c10.039-10.039,23.388-15.568,37.586-15.568
				s27.548,5.529,37.587,15.568c5.206,5.208,9.202,11.294,11.876,18.091c1.504,3.825,5.195,6.339,9.306,6.339h126.608l9.463,9.462
				l1.039,7.417L365.859,229.585z"/>
			<path class="st0" d="M165.238,191c-8.262,0-15,6.738-15,15c0,8.262,6.739,15,15,15c8.262,0,15-6.738,15-15
				C180.238,197.738,173.5,191,165.238,191z"/>
		</g>
	</g>
</g>
<g>
</g>
<g>
</g>
<g>
</g>
<g>
</g>
<g>
</g>
<g>
</g>
<g>
</g>
<g>
</g>
<g>
</g>
<g>
</g>
<g>
</g>
<g>
</g>
<g>
</g>
<g>
</g>
<g>
</g>
</svg>
