<?xml version="1.0" encoding="iso-8859-1"?>
<!-- Generator: Adobe Illustrator 19.0.0, SVG Export Plug-In . SVG Version: 6.00 Build 0)  -->
<svg version="1.1" id="Capa_1" xmlns="http://www.w3.org/2000/svg" xmlns:xlink="http://www.w3.org/1999/xlink" x="0px" y="0px"
	 viewBox="0 0 512.001 512.001" style="enable-background:new 0 0 512.001 512.001;" xml:space="preserve">
  <style type="text/css">
	.st0{fill:#FFFFFF;}
</style>
  <g>
	<g>
		<path class="st0" d="M392.001,0h-312c-18.748,0-34,15.252-34,34v72c0,18.747,15.252,33.999,34,33.999h312c18.748,0,34-15.252,34-34V34
			C426.001,15.252,410.749,0,392.001,0z M406.001,106c0,7.72-6.28,14-14,14h-312c-7.72,0-14-6.28-14-14c0,0,0-72,0-72
			c0-7.719,6.28-14,14-14h312c7.72,0,14,6.28,14,14V106z"/>
	</g>
</g>
<g>
	<g>
		<path class="st0" d="M392.001,155h-312c-18.748,0-34,15.253-34,34v72c0,18.748,15.252,34,34,34h312c18.748,0,34-15.252,34-34v-72
			C426.001,170.253,410.749,155,392.001,155z M406.001,261.001c0,7.72-6.28,14-14,14h-312c-7.72,0-14-6.28-14-14c0,0,0-72,0-72
			c0-7.72,6.28-14,14-14h312c7.72,0,14,6.28,14,14V261.001z"/>
	</g>
</g>
<g>
	<g>
		<path class="st0" d="M135.127,36.897c-18.252,0-33.103,14.85-33.103,33.103s14.85,33.103,33.103,33.103S168.229,88.253,168.229,70
			S153.379,36.897,135.127,36.897z M135.127,83.103c-7.225,0-13.103-5.878-13.103-13.103s5.878-13.103,13.103-13.103
			c7.225,0,13.102,5.878,13.102,13.103S142.351,83.103,135.127,83.103z"/>
	</g>
</g>
<g>
	<g>
		<path class="st0" d="M359.977,42.225h-148.35c-5.523,0-10,4.477-10,10c0,5.523,4.477,10,10,10h148.35c5.522,0,10-4.477,10-10
			C369.977,46.702,365.499,42.225,359.977,42.225z"/>
	</g>
</g>
<g>
	<g>
		<path class="st0" d="M330.419,77.775H288.98h-77.354c-5.523,0-10,4.477-10,10c0.001,5.523,4.478,10,10.001,10h77.354h41.438
			c5.522,0,10-4.477,10-10C340.419,82.252,335.94,77.775,330.419,77.775z"/>
	</g>
</g>
<g>
	<g>
		<path class="st0" d="M359.976,77.775h-0.475c-5.522,0-10,4.477-10,10c0,5.523,4.478,10,10,10h0.475c5.522,0,10-4.477,10-10
			C369.976,82.252,365.499,77.775,359.976,77.775z"/>
	</g>
</g>
<g>
	<g>
		<path class="st0" d="M135.127,191.898c-18.252,0-33.103,14.85-33.103,33.102c0,18.253,14.85,33.103,33.103,33.103s33.102-14.85,33.102-33.103
			C168.229,206.748,153.379,191.898,135.127,191.898z M135.127,238.103c-7.225,0-13.103-5.878-13.103-13.103
			c0-7.224,5.878-13.102,13.103-13.102c7.225,0,13.102,5.877,13.102,13.102C148.229,232.225,142.351,238.103,135.127,238.103z"/>
	</g>
</g>
<g>
	<g>
		<path class="st0" d="M359.977,197.226h-148.35c-5.523,0-10,4.477-10,10c0,5.523,4.477,10,10,10h148.35c5.522,0,10-4.477,10-10
			C369.977,201.703,365.499,197.226,359.977,197.226z"/>
	</g>
</g>
<g>
	<g>
		<path class="st0" d="M330.419,232.776H288.98h-77.354c-5.523,0-10,4.477-10,10c0.001,5.523,4.478,10,10.001,10h77.354h41.438
			c5.522,0,10-4.477,10-10S335.94,232.776,330.419,232.776z"/>
	</g>
</g>
<g>
	<g>
		<path class="st0" d="M359.976,232.776h-0.475c-5.522,0-10,4.477-10,10s4.478,10,10,10h0.475c5.522,0,10-4.477,10-10
			S365.499,232.776,359.976,232.776z"/>
	</g>
</g>
<g>
	<g>
		<path class="st0" d="M135.127,346.899c-18.253,0-33.103,14.85-33.103,33.102s14.85,33.102,33.103,33.102s33.102-14.85,33.102-33.102
			C168.229,361.749,153.38,346.899,135.127,346.899z M135.127,393.104c-7.225,0-13.103-5.878-13.103-13.102
			c0-7.225,5.878-13.102,13.103-13.102c7.225,0,13.102,5.878,13.102,13.102S142.351,393.104,135.127,393.104z"/>
	</g>
</g>
<g>
	<g>
		<path class="st0" d="M456.001,377.313c-9.581,0-22.787-7.721-25.455-17.675c-0.692-2.583-2.363-4.695-4.545-5.996v-9.641
			c0-18.748-15.252-34-34-34h-312c-18.748,0-34,15.252-34,34v72c0,18.747,15.252,33.999,34,33.999h246.044
			c6.098,17.941,16.711,31,26.131,39.734c14.832,13.753,32.999,22.267,41.324,22.267s26.491-8.513,41.324-22.267
			c14.223-13.189,31.177-36.222,31.177-71.06v-31.362C466.001,381.79,461.523,377.313,456.001,377.313z M320.998,387.313v0.463
			H288.98h-77.354c-5.523,0-10,4.477-10,10s4.477,10,10,10h77.354h32.018v10.898v0.001c0,0.001,0,0.003,0,0.005
			c0,1.004,0.017,2.006,0.046,3.005c0.015,0.526,0.042,1.043,0.064,1.564c0.02,0.443,0.036,0.887,0.062,1.329
			c0.039,0.709,0.092,1.41,0.147,2.108c0.017,0.228,0.032,0.456,0.052,0.683c0.07,0.836,0.152,1.663,0.242,2.483
			c0.005,0.05,0.008,0.099,0.014,0.148H80c-7.72,0-14-6.28-14-13.999v-72c0-7.72,6.28-14,14-14h312c7.72,0,14,6.28,14,14v8.225
			h-39.888h-0.001H211.627c-5.523,0-10,4.477-10,10s4.477,10,10,10h134.664c-4.827,3.164-10.512,5.087-15.293,5.087
			C325.475,377.313,320.998,381.79,320.998,387.313z M446.001,418.675L446.001,418.675c-0.001,51.07-45.555,71.8-52.502,73.276
			c-5.997-1.274-40.759-16.899-50.156-53.999c-0.047-0.225-0.102-0.446-0.163-0.665c-0.052-0.211-0.105-0.419-0.155-0.631
			c-0.082-0.349-0.157-0.701-0.234-1.053c-0.074-0.341-0.15-0.681-0.221-1.025c-0.099-0.484-0.19-0.972-0.278-1.46
			c-0.041-0.221-0.085-0.439-0.124-0.662c-0.118-0.685-0.229-1.373-0.329-2.064c-0.006-0.038-0.013-0.076-0.018-0.114
			c-0.547-3.786-0.822-7.666-0.822-11.604v-22.613c10.214-2.474,20.657-8.52,27.646-17.316c1.612-2.03,3.041-4.206,4.241-6.519
			h41.228c6.398,12.335,19.316,20.79,31.887,23.835V418.675z"/>
	</g>
</g>
</svg>
