<svg id="Capa_1" enable-background="new 0 0 512 512" height="512" viewBox="0 0 512 512" width="512" xmlns="http://www.w3.org/2000/svg">
  <style type="text/css">
    .st0{fill:#FFFFFF;}
  </style>
  <g>
    <path class="st0" d="m407 362c-24.813 0-45 20.187-45 45s20.187 45 45 45 45-20.187 45-45-20.187-45-45-45zm0 60c-8.271 0-15-6.729-15-15s6.729-15 15-15 15 6.729 15 15-6.729 15-15 15z"/>
    <path class="st0" d="m407 302c-11.88 0-23.641 2.107-35.088 6.277l-32.912-32.912c6.331-11.263 11.269-23.092 14.756-35.365h36.244v-90h-36.244c-3.487-12.273-8.42-24.101-14.751-35.364l25.702-25.701-63.641-63.641-25.701 25.702c-11.264-6.331-23.093-11.265-35.365-14.752v-36.244h-90v36.244c-12.272 3.486-24.101 8.42-35.364 14.751l-25.701-25.701-63.642 63.64 25.702 25.701c-6.33 11.264-11.264 23.092-14.751 35.365h-36.244v90h36.244c3.487 12.273 8.42 24.101 14.751 35.364l-25.702 25.701 63.641 63.641 25.701-25.702c11.264 6.331 23.092 11.265 35.364 14.751v36.245h90v-36.244c12.273-3.487 24.101-8.425 35.365-14.756l32.912 32.912c-4.169 11.447-6.276 23.207-6.276 35.088 0 57.897 47.103 105 105 105s105-47.103 105-105-47.103-105-105-105zm-184.984 25.277-12.016 2.439v30.284h-30v-30.284l-12.016-2.439c-16.775-3.405-32.699-10.044-47.33-19.73l-10.22-6.766-21.5 21.5-21.214-21.215 21.5-21.5-6.767-10.22c-9.686-14.629-16.324-30.553-19.73-47.33l-2.439-12.016h-30.284v-30h30.284l2.439-12.016c3.406-16.776 10.044-32.7 19.73-47.33l6.767-10.22-21.5-21.5 21.215-21.214 21.5 21.5 10.22-6.767c14.63-9.687 30.555-16.325 47.33-19.73l12.015-2.439v-30.284h30v30.284l12.016 2.439c16.775 3.405 32.7 10.044 47.33 19.73l10.22 6.767 21.5-21.5 21.214 21.214-21.5 21.5 6.767 10.22c9.686 14.629 16.324 30.553 19.73 47.33l2.439 12.016h30.284v30h-30.284l-2.439 12.016c-2.185 10.764-5.708 21.175-10.506 31.12l-22.845-22.845c4.034-11.273 6.074-23.102 6.074-35.291 0-57.897-47.103-105-105-105-31.628 0-51.139 14.366-64.185 19.603l70.398 70.397v21.212h-21.213l-70.397-70.398c-5.351 13.333-19.603 32.624-19.603 64.186 0 57.897 47.103 105 105 105 12.19 0 24.017-2.039 35.291-6.074l22.845 22.845c-9.946 4.798-20.357 8.321-31.12 10.506zm184.984 154.723c-41.355 0-75-33.645-75-75 0-21.452 9.69-35.533 12.105-41.687l-107.199-107.198c-6.284 2.442-19.394 11.885-41.906 11.885-41.355 0-75-33.645-75-75 0-3.527.269-7.05.803-10.559l46.771 46.771h63.639v-63.639l-46.771-46.771c3.509-.534 7.032-.802 10.558-.802 41.355 0 75 33.645 75 75 0 22.468-9.419 35.559-11.886 41.906l107.199 107.199c6.082-2.387 20.217-12.105 41.687-12.105 41.355 0 75 33.645 75 75s-33.645 75-75 75z"/>
  </g>
</svg>
