<svg id="Capa_1" enable-background="new 0 0 512 512" height="512" viewBox="0 0 512 512" width="512" xmlns="http://www.w3.org/2000/svg">
  <g>
    <path d="m260.675 370.064h159.607c4.142 0 7.5-3.358 7.5-7.5v-117.788c0-4.142-3.358-7.5-7.5-7.5h-263.57c-4.143 0-7.5 3.358-7.5 7.5v117.788c0 4.142 3.357 7.5 7.5 7.5h51.981c4.143 0 7.5-3.358 7.5-7.5v-51.17h36.982v51.17c0 4.142 3.357 7.5 7.5 7.5zm7.5-58.67h59.744v43.67h-59.744zm144.606 43.67h-69.862v-102.788h69.862zm-84.862-58.67h-59.744v-44.118h59.744zm-163.708-44.118h88.964v44.118h-88.964zm36.981 102.788h-36.981v-43.67h36.981z" fill="#FFFFFF"/>
    <path d="m384.219 403.676h-346.719c-12.386 0-22.467-10.061-22.499-22.441 0-.009.001-.017.001-.026.054-12.352 10.147-22.401 22.497-22.401h25.58c4.143 0 7.5-3.358 7.5-7.5v-181.196h80.747c4.143 0 7.5-3.358 7.5-7.5s-3.357-7.5-7.5-7.5h-80.746v-54.288c0-4.142-3.357-7.5-7.5-7.5h-25.58c-20.678 0-37.5 16.822-37.5 37.5v250.351c0 20.678 16.822 37.5 37.5 37.5h346.719c4.142 0 7.5-3.358 7.5-7.5s-3.358-7.499-7.5-7.499zm-369.219-272.852c0-12.407 10.094-22.5 22.5-22.5h18.08v235.483h-18.08c-8.427 0-16.225 2.808-22.5 7.535z" fill="#FFFFFF"/>
    <path d="m504.5 155.112h-323.173c-4.143 0-7.5 3.358-7.5 7.5s3.357 7.5 7.5 7.5h315.673v233.563h-82.781c-4.143 0-7.5 3.358-7.5 7.5s3.357 7.5 7.5 7.5h90.281c4.143 0 7.5-3.358 7.5-7.5v-248.563c0-4.142-3.357-7.5-7.5-7.5z" fill="#FFFFFF"/>
    <path d="m420.281 201.086h-292.217v-6.442c0-4.142-3.357-7.5-7.5-7.5s-7.5 3.358-7.5 7.5v6.442h-7.097c-4.143 0-7.5 3.358-7.5 7.5s3.357 7.5 7.5 7.5h7.097v149.477c0 4.142 3.357 7.5 7.5 7.5s7.5-3.358 7.5-7.5v-149.477h292.218c4.142 0 7.5-3.358 7.5-7.5-.001-4.142-3.358-7.5-7.501-7.5z" fill="#FFFFFF"/>
  </g>
</svg>
